# xmcd
#
# Track frame offsets: 
#        150
#        13943
#        37117
#        54144
#        67377
#        85599
#        101725
#        128917
#        144775
#        157176
#        172169
#        189173
#        202111
#        214227
#        225950
#
# Disc length: 3154 seconds
#
# Revision: 1
# Processed by: cddbd v1.5.2PL0 Copyright (c) Steve Scherf et al.
# Submitted via: ExactAudioCopy v1.3
#
DISCID=d50c500f
DTITLE=Love Sculpture - Blues Helping
DYEAR=1968
DGENRE=Rock
TTITLE0=The Stumble
TTITLE1=Three O'Clock Blues
TTITLE2=I Believe To My Soul
TTITLE3=So Unkind
TTITLE4=Summertime
TTITLE5=On The Road Again
TTITLE6=Don't Answer The Door
TTITLE7=Wang Dang Doodle
TTITLE8=Come Back Baby
TTITLE9=Shake Your Hips
TTITLE10=Blues Helping
TTITLE11=Sharons, The - Morning Dew (Take Me For A Walk) (single a-sid
TTITLE11=e)
TTITLE12=Sharons, The - It's A Wonder (You Don't Turn To Sugar) (singl
TTITLE12=e b-side)
TTITLE13=River To Another Day (single a-side)
TTITLE14=Brand New Woman (single b-side)
EXTD=
EXTT0=
EXTT1=
EXTT2=
EXTT3=
EXTT4=
EXTT5=
EXTT6=
EXTT7=
EXTT8=
EXTT9=
EXTT10=
EXTT11=
EXTT12=
EXTT13=
EXTT14=
PLAYORDER=
